<svg width="513" height="512" viewBox="0 0 513 512" fill="none" xmlns="http://www.w3.org/2000/svg">
<path d="M10 255.5C10 82 10 82 256.5 82L258.612 82C503.023 81.9986 507 81.9985 507 255.5C507 429.5 503 429.5 256.5 429.5C10 429.5 10 429 10 255.5Z" fill="#FF0000"/>
<path d="M153.509 258.196C153.509 258.48 153.509 258.764 153.509 259.022L164.897 247.513C166.484 245.907 168.369 244.631 170.446 243.758C172.522 242.885 174.75 242.431 177.001 242.424C179.251 242.417 181.481 242.856 183.564 243.716C185.646 244.576 187.539 245.84 189.136 247.436C190.732 249.032 192.001 250.929 192.869 253.018C193.737 255.107 194.187 257.348 194.194 259.613C194.202 261.877 193.765 264.121 192.911 266.215C192.056 268.31 190.799 270.215 189.213 271.821L150.149 311.431C146.997 314.611 142.737 316.431 138.274 316.503C133.811 316.575 129.495 314.895 126.243 311.819L86.3838 276.569C83.3714 273.459 81.637 269.319 81.5275 264.977C81.4181 260.636 82.9415 256.413 85.7933 253.153C88.6451 249.892 92.615 247.835 96.9092 247.393C101.203 246.95 105.506 248.154 108.955 250.765L119.215 259.9C117.913 231.767 125.064 203.891 139.735 179.905C154.29 156.123 175.789 137.441 201.294 126.412C210.388 122.49 219.837 119.457 229.508 117.355C260.479 110.335 292.919 114.531 321.117 129.207C349.315 143.882 371.463 168.094 383.662 197.581C387.558 206.722 390.539 216.231 392.563 225.966C397.487 249.046 396.329 273.02 389.202 295.51C381.964 317.898 369.121 338.035 351.908 353.983C335.47 369.592 315.665 381.162 294.043 387.787C276.668 393.024 258.367 394.377 240.418 391.752C222.47 389.127 205.309 382.586 190.136 372.588C186.323 370.101 183.649 366.191 182.701 361.72C181.754 357.248 182.61 352.581 185.083 348.745C187.556 344.909 191.442 342.218 195.887 341.265C200.332 340.312 204.971 341.174 208.783 343.661C213.272 346.664 218.019 349.255 222.968 351.403C227.692 353.43 232.584 355.036 237.588 356.203C253.028 359.851 269.149 359.371 284.347 354.809C300.931 349.66 316.102 340.712 328.669 328.669C341.642 316.681 351.301 301.513 356.704 284.646C362.046 267.897 362.93 250.031 359.269 232.83C357.683 225.314 355.381 217.969 352.395 210.897C343.31 188.787 326.727 170.635 305.595 159.665C284.462 148.694 260.148 145.616 236.972 150.978C229.474 152.582 222.154 154.933 215.119 157.997C196.02 166.148 179.912 180.071 169.027 197.839C157.937 215.93 152.529 236.965 153.509 258.196ZM236.562 201.736C236.562 197.554 238.213 193.544 241.152 190.587C244.091 187.63 248.077 185.969 252.234 185.969C256.39 185.969 260.376 187.63 263.316 190.587C266.255 193.544 267.906 197.554 267.906 201.736V250.765L306.098 272.105C309.724 274.138 312.398 277.536 313.534 281.553C314.669 285.569 314.172 289.875 312.151 293.523C310.131 297.171 306.753 299.862 302.76 301.004C298.768 302.146 294.488 301.646 290.862 299.613L245.796 274.402C243.045 273.155 240.71 271.135 239.072 268.585C237.434 266.036 236.562 263.064 236.562 260.029V201.736Z" fill="white"/>
<rect x="0.0463257" y="395.078" width="584.43" height="58.4317" rx="29" transform="rotate(-35.0818 0.0463257 395.078)" fill="black" fill-opacity="0.65"/>
</svg>
